# xmcd
#
# Track frame offsets: 
#        150
#        13555
#        23293
#        33336
#        43553
#        51796
#        61292
#        71119
#        83411
#        97756
#        108094
#        117294
#        126761
#        138471
#
# Disc length: 2032 seconds
#
# Revision: 0
# Processed by: cddbd v1.5.2PL0 Copyright (c) Steve Scherf et al.
# Submitted via: ExactAudioCopyFreeDBPlugin 1.0
#
DISCID=a407ee0e
DTITLE=Bluegrass Cwrkot - Hear That Sound
DYEAR=2012
DGENRE=Bluegrass
TTITLE0=Truck Drivin' Man
TTITLE1=Road To Hradec
TTITLE2=Prisoner's Dream
TTITLE3=Two Dollar Bill
TTITLE4=To an Isle
TTITLE5=Dig a Hole in The Meadow
TTITLE6=Listen to The Mockingbird
TTITLE7=Thank You, Scruggs And Flatt
TTITLE8=Hear That Sound
TTITLE9=Worries On My Mind
TTITLE10=Mr. President
TTITLE11=Dixie Trucker's Home
TTITLE12=The Torch That You Lit
TTITLE13=Hombre And Brandy
EXTD=
EXTT0=
EXTT1=
EXTT2=
EXTT3=
EXTT4=
EXTT5=
EXTT6=
EXTT7=
EXTT8=
EXTT9=
EXTT10=
EXTT11=
EXTT12=
EXTT13=
PLAYORDER=
